<mxfile host="app.diagrams.net" modified="2023-06-26T15:19:12.335Z" agent="Mozilla/5.0 (Windows NT 10.0; Win64; x64) AppleWebKit/537.36 (KHTML, like Gecko) Chrome/113.0.0.0 Safari/537.36 OPR/99.0.0.0" etag="1N46bo3uFJIvNTWOvo6D" version="21.5.0" type="github">
  <diagram name="Page-0" id="TTATw9IP3CTHL7xZolX4">
    <mxGraphModel dx="605" dy="332" grid="1" gridSize="10" guides="1" tooltips="1" connect="1" arrows="1" fold="1" page="1" pageScale="1" pageWidth="827" pageHeight="1169" math="0" shadow="0">
      <root>
        <mxCell id="0" />
        <mxCell id="1" parent="0"/>
      </root>
    </mxGraphModel>
  </diagram>
</mxfile>
